<svg width="1000" height="1000" viewBox="0 0 1000 1000" fill="none" xmlns="http://www.w3.org/2000/svg">
<g clip-path="url(#clip0_12_4)">
<path d="M860.878 807.35C456.079 1000 204.857 838.815 44.0417 740.915C34.0905 734.745 17.177 742.358 31.8518 759.214C85.4274 824.175 261.006 980.752 490.187 980.752C719.526 980.752 855.962 855.614 873.029 833.784C889.981 812.139 878.007 800.199 860.874 807.35H860.878ZM974.564 744.566C963.694 730.41 908.464 727.771 873.706 732.041C838.894 736.188 786.642 757.463 791.185 770.238C793.516 775.023 798.274 772.877 822.188 770.726C846.168 768.334 913.345 759.856 927.343 778.154C941.406 796.58 905.918 884.352 899.436 898.507C893.174 912.663 901.829 916.313 913.592 906.885C925.193 897.461 946.195 873.054 960.289 838.515C974.287 803.788 982.827 755.344 974.564 744.566Z" fill="#AFAFAF"/>
<path fill-rule="evenodd" clip-rule="evenodd" d="M588.695 414.249C588.695 464.798 589.972 506.953 564.423 551.843C543.801 588.343 511.136 610.788 474.639 610.788C424.818 610.788 395.803 572.83 395.803 516.808C395.803 406.218 494.892 386.146 588.695 386.146V414.249ZM719.538 730.503C710.96 738.165 698.551 738.715 688.88 733.603C645.814 697.837 638.147 681.231 614.425 647.104C543.255 719.736 492.888 741.45 400.55 741.45C291.421 741.45 206.38 674.111 206.38 539.253C206.38 433.959 263.503 362.239 344.705 327.204C415.148 296.178 513.509 290.704 588.695 282.13V265.339C588.695 234.497 591.065 198.001 573.001 171.359C557.122 147.452 526.83 137.597 500.185 137.597C450.733 137.597 406.57 162.962 395.803 215.518C393.61 227.2 385.036 238.698 373.358 239.244L247.439 225.742C236.857 223.365 225.179 214.791 228.098 198.547C257.113 45.9901 394.887 0 518.248 0C581.39 0 663.873 16.7905 713.695 64.6039C776.837 123.546 770.813 202.197 770.813 287.784V489.982C770.813 550.75 795.997 577.392 819.719 610.242C828.112 621.92 829.939 635.976 819.353 644.731C792.893 666.81 745.81 707.873 719.899 730.868L719.534 730.503" fill="black"/>
<path d="M860.878 807.35C456.079 1000 204.857 838.815 44.0417 740.915C34.0905 734.745 17.177 742.358 31.8518 759.214C85.4274 824.175 261.006 980.752 490.187 980.752C719.526 980.752 855.962 855.614 873.029 833.784C889.981 812.139 878.007 800.199 860.874 807.35H860.878ZM974.564 744.566C963.694 730.41 908.464 727.771 873.706 732.041C838.894 736.188 786.642 757.463 791.185 770.238C793.516 775.023 798.274 772.877 822.188 770.726C846.168 768.334 913.345 759.856 927.343 778.154C941.406 796.58 905.918 884.352 899.436 898.507C893.174 912.663 901.829 916.313 913.592 906.885C925.193 897.461 946.195 873.054 960.289 838.515C974.287 803.788 982.827 755.344 974.564 744.566Z" fill="#5F5D5D"/>
<path fill-rule="evenodd" clip-rule="evenodd" d="M588.695 414.249C588.695 464.798 589.972 506.953 564.423 551.843C543.801 588.343 511.136 610.788 474.639 610.788C424.818 610.788 395.803 572.83 395.803 516.808C395.803 406.218 494.892 386.146 588.695 386.146V414.249ZM719.538 730.503C710.96 738.165 698.551 738.715 688.88 733.603C645.814 697.837 638.147 681.231 614.425 647.104C543.255 719.736 492.888 741.45 400.55 741.45C291.421 741.45 206.38 674.111 206.38 539.253C206.38 433.959 263.503 362.239 344.705 327.204C415.148 296.178 513.509 290.704 588.695 282.13V265.339C588.695 234.497 591.065 198.001 573.001 171.359C557.122 147.452 526.83 137.597 500.185 137.597C450.733 137.597 406.57 162.962 395.803 215.518C393.61 227.2 385.036 238.698 373.358 239.244L247.439 225.742C236.857 223.365 225.179 214.791 228.098 198.547C257.113 45.9901 394.887 0 518.248 0C581.39 0 663.873 16.7905 713.695 64.6039C776.837 123.546 770.813 202.197 770.813 287.784V489.982C770.813 550.75 795.997 577.392 819.719 610.242C828.112 621.92 829.939 635.976 819.353 644.731C792.893 666.81 745.81 707.873 719.899 730.868L719.534 730.503" fill="#1D1D1D"/>
</g>
<defs>
<clipPath id="clip0_12_4">
<rect width="1000" height="1000" fill="white"/>
</clipPath>
</defs>
</svg>
